<svg width="80" height="100" viewBox="0 0 80 100" fill="none" xmlns="http://www.w3.org/2000/svg">
    <path d="M8.64 94.52C5.44 93.28 4.48 91.08 5.76 87.92L34.32 17.6C35.52 14.96 37.4 13.64 39.96 13.64H40.2C42.8 13.76 44.56 15.08 45.48 17.6L74.52 87.92C75.8 91.08 74.88 93.28 71.76 94.52C68.6 95.76 66.4 94.84 65.16 91.76L58.68 76.04H21.3L15.12 91.76C13.88 94.88 11.72 95.8 8.64 94.52ZM25.26 65.96H54.54L39.6 29.6L25.26 65.96Z" fill="#ff1144"/>
    <path d="M8.64 94.52L10.5588 89.9028L10.503 89.8796L10.4466 89.8578L8.64 94.52ZM5.76 87.92L1.12749 86.0385L1.12575 86.0428L5.76 87.92ZM34.32 17.6L29.7682 15.531L29.7259 15.6239L29.6875 15.7185L34.32 17.6ZM40.2 13.64L40.4305 8.64531L40.3153 8.64H40.2V13.64ZM45.48 17.6L40.7832 19.3147L40.8189 19.4124L40.8586 19.5085L45.48 17.6ZM74.52 87.92L79.1543 86.0428L79.1479 86.0271L79.1414 86.0115L74.52 87.92ZM71.76 94.52L73.5864 99.1745L73.5966 99.1705L73.6067 99.1665L71.76 94.52ZM65.16 91.76L69.7982 89.8927L69.7905 89.8735L69.7827 89.8545L65.16 91.76ZM58.68 76.04L63.3027 74.1345L62.0271 71.04H58.68V76.04ZM21.3 76.04V71.04H17.8931L16.6467 74.2106L21.3 76.04ZM15.12 91.76L19.7665 93.6067L19.7699 93.598L19.7733 93.5894L15.12 91.76ZM25.26 65.96L20.6087 64.1256L17.9132 70.96H25.26V65.96ZM54.54 65.96V70.96H62.0001L59.1648 64.0597L54.54 65.96ZM39.6 29.6L44.2248 27.6997L39.505 16.2128L34.9487 27.7656L39.6 29.6ZM10.4466 89.8578C10.2377 89.7768 10.0895 89.7044 9.99003 89.6486C9.89088 89.593 9.84911 89.5591 9.84632 89.5568C9.84482 89.5555 9.88216 89.5863 9.9361 89.6559C9.96277 89.6903 9.99181 89.732 10.021 89.7809C10.0502 89.83 10.0779 89.8833 10.1027 89.9403C10.1275 89.9972 10.1481 90.0542 10.1644 90.1099C10.1807 90.1655 10.1918 90.2164 10.1991 90.2611C10.214 90.3516 10.2113 90.4044 10.2111 90.408C10.211 90.4098 10.2138 90.3617 10.2396 90.257C10.2655 90.1519 10.3122 89.9997 10.3942 89.7972L1.12575 86.0428C0.195789 88.3387 -0.273109 91.1659 0.937303 93.9397C2.14418 96.7055 4.52873 98.2892 6.8334 99.1822L10.4466 89.8578ZM10.3925 89.8015L38.9525 19.4815L29.6875 15.7185L1.12749 86.0385L10.3925 89.8015ZM38.8718 19.669C39.1983 18.9508 39.4614 18.7514 39.5032 18.7221C39.5277 18.7048 39.5504 18.6926 39.5924 18.6802C39.6391 18.6663 39.7522 18.64 39.96 18.64V8.64C37.7745 8.64 35.6336 9.2202 33.7569 10.5379C31.9186 11.8286 30.6417 13.6092 29.7682 15.531L38.8718 19.669ZM39.96 18.64H40.2V8.64H39.96V18.64ZM39.9695 18.6347C40.2241 18.6464 40.3652 18.6832 40.4244 18.7028C40.4774 18.7202 40.4823 18.7292 40.47 18.72C40.4198 18.6823 40.582 18.7636 40.7832 19.3147L50.1768 15.8853C49.458 13.9164 48.2802 12.0777 46.47 10.72C44.6495 9.35463 42.5452 8.74291 40.4305 8.64531L39.9695 18.6347ZM40.8586 19.5085L69.8986 89.8285L79.1414 86.0115L50.1014 15.6915L40.8586 19.5085ZM69.8858 89.7972C69.9695 90.0038 70.0183 90.1613 70.0462 90.2727C70.0739 90.3837 70.0783 90.439 70.0787 90.4451C70.079 90.4495 70.0757 90.4042 70.0884 90.3204C70.0947 90.2789 70.1045 90.2305 70.1194 90.177C70.1344 90.1233 70.1535 90.0675 70.1771 90.011C70.2007 89.9545 70.2275 89.9006 70.2563 89.8505C70.2851 89.8003 70.3143 89.7568 70.3419 89.72C70.3978 89.6455 70.4397 89.6085 70.446 89.6031C70.451 89.5988 70.419 89.6268 70.3317 89.6771C70.2439 89.7277 70.1085 89.7959 69.9133 89.8735L73.6067 99.1665C75.8985 98.2556 78.2423 96.6443 79.4029 93.869C80.5557 91.1125 80.0753 88.3168 79.1543 86.0428L69.8858 89.7972ZM69.9336 89.8655C69.7265 89.9468 69.5678 89.9943 69.4544 90.0215C69.3413 90.0486 69.2826 90.0533 69.272 90.0539C69.2629 90.0544 69.3023 90.0513 69.3794 90.0633C69.4586 90.0756 69.5591 90.1011 69.669 90.1471C69.7792 90.1932 69.8733 90.2492 69.9469 90.304C70.0189 90.3576 70.0551 90.398 70.0609 90.4048C70.0657 90.4103 70.0389 90.3802 69.9901 90.2965C69.9411 90.2124 69.8744 90.0818 69.7982 89.8927L60.5218 93.6273C61.4416 95.912 63.0584 98.2218 65.811 99.3729C68.5377 100.513 71.3111 100.067 73.5864 99.1745L69.9336 89.8655ZM69.7827 89.8545L63.3027 74.1345L54.0573 77.9455L60.5373 93.6655L69.7827 89.8545ZM58.68 71.04H21.3V81.04H58.68V71.04ZM16.6467 74.2106L10.4667 89.9306L19.7733 93.5894L25.9533 77.8694L16.6467 74.2106ZM10.4735 89.9133C10.3942 90.1129 10.3242 90.2525 10.2717 90.3444C10.2194 90.4359 10.1895 90.4709 10.192 90.468C10.1955 90.4638 10.2318 90.4218 10.3073 90.3642C10.3447 90.3358 10.3895 90.3052 10.4416 90.2747C10.4938 90.2442 10.5504 90.2155 10.6107 90.1899C10.6709 90.1642 10.7313 90.1431 10.7904 90.1263C10.8494 90.1096 10.9038 90.0982 10.9519 90.0907C11.0493 90.0757 11.1093 90.0785 11.1202 90.0793C11.1294 90.0799 11.089 90.078 10.9925 90.0532C10.8956 90.0284 10.7521 89.9831 10.5588 89.9028L6.72118 99.1372C8.97423 100.073 11.7684 100.566 14.5293 99.3901C17.2821 98.2176 18.8674 95.8688 19.7665 93.6067L10.4735 89.9133ZM25.26 70.96H54.54V60.96H25.26V70.96ZM59.1648 64.0597L44.2248 27.6997L34.9752 31.5003L49.9152 67.8603L59.1648 64.0597ZM34.9487 27.7656L20.6087 64.1256L29.9113 67.7944L44.2513 31.4344L34.9487 27.7656Z" fill="#ff1144"/>
</svg>
