<svg width="72" height="92" viewBox="0 0 72 92" fill="none" xmlns="http://www.w3.org/2000/svg">
  <path d="M10.52 87C7.16 87 5.48 85.32 5.48 81.96V10.68C5.48 7.32 7.16 5.64 10.52 5.64H41.84C48.2 5.64 53.08 7.32 56.48 10.68C59.92 14.04 61.64 18.84 61.64 25.08V28.32C61.64 33.72 59.94 37.9 56.54 40.86C62.9 44.42 66.08 50.92 66.08 60.36V64.44C66.08 71.8 64.12 77.4 60.2 81.24C56.32 85.08 50.72 87 43.4 87H10.52ZM15.56 76.92H43.4C47.92 76.92 51.14 75.96 53.06 74.04C55.02 72.08 56 68.88 56 64.44V60.36C56 55.92 55.06 52.76 53.18 50.88C51.3 48.96 48.04 48 43.4 48H15.56V76.92ZM15.56 37.92H44C46.92 37.92 48.9 37.02 49.94 35.22C51.02 33.42 51.56 31.12 51.56 28.32V25.08C51.56 21.6 50.84 19.18 49.4 17.82C47.96 16.42 45.44 15.72 41.84 15.72H15.56V37.92Z" fill="#ff1144"/>\n    <path d="M56.48 10.68L52.9655 14.2364L52.9759 14.2467L52.9863 14.2569L56.48 10.68ZM56.54 40.86L53.2569 37.0889L47.8991 41.7533L54.0978 45.223L56.54 40.86ZM60.2 81.24L56.7011 77.6682L56.6919 77.6772L56.6828 77.6862L60.2 81.24ZM15.56 76.92H10.56V81.92H15.56V76.92ZM53.06 74.04L49.5245 70.5045L49.5245 70.5045L53.06 74.04ZM53.18 50.88L49.6074 54.3781L49.6259 54.3969L49.6445 54.4155L53.18 50.88ZM15.56 48V43H10.56V48H15.56ZM15.56 37.92H10.56V42.92H15.56V37.92ZM49.94 35.22L45.6525 32.6475L45.6313 32.6829L45.6107 32.7186L49.94 35.22ZM49.4 17.82L45.9146 21.405L45.9406 21.4302L45.9669 21.4551L49.4 17.82ZM15.56 15.72V10.72H10.56V15.72H15.56ZM10.52 82C10.3064 82 10.1511 81.9865 10.0459 81.9715C9.94108 81.9565 9.89555 81.9414 9.89614 81.9416C9.89829 81.9423 9.94579 81.9585 10.0212 82.0038C10.0585 82.0261 10.1002 82.0542 10.1444 82.0886C10.1886 82.123 10.2328 82.1617 10.2755 82.2045C10.3183 82.2472 10.357 82.2914 10.3914 82.3356C10.4258 82.3798 10.4539 82.4215 10.4762 82.4588C10.5215 82.5342 10.5377 82.5817 10.5384 82.5839C10.5386 82.5844 10.5235 82.5389 10.5085 82.4341C10.4935 82.3289 10.48 82.1736 10.48 81.96H0.48C0.48 84.4107 1.09607 87.1671 3.20447 89.2755C5.31287 91.3839 8.06928 92 10.52 92V82ZM10.48 81.96V10.68H0.48V81.96H10.48ZM10.48 10.68C10.48 10.4664 10.4935 10.311 10.5085 10.2059C10.5235 10.1011 10.5386 10.0555 10.5384 10.0561C10.5377 10.0583 10.5215 10.1058 10.4762 10.1812C10.4539 10.2185 10.4258 10.2602 10.3914 10.3044C10.357 10.3486 10.3183 10.3928 10.2755 10.4355C10.2328 10.4783 10.1886 10.517 10.1444 10.5514C10.1002 10.5858 10.0585 10.6138 10.0212 10.6362C9.94579 10.6815 9.89829 10.6977 9.89614 10.6984C9.89555 10.6986 9.94108 10.6835 10.0459 10.6685C10.1511 10.6535 10.3064 10.64 10.52 10.64V0.639996C8.06928 0.639996 5.31287 1.25606 3.20447 3.36446C1.09607 5.47286 0.48 8.22927 0.48 10.68H10.48ZM10.52 10.64H41.84V0.639996H10.52V10.64ZM41.84 10.64C47.333 10.64 50.7784 12.075 52.9655 14.2364L59.9946 7.1236C55.3816 2.56496 49.067 0.639996 41.84 0.639996V10.64ZM52.9863 14.2569C55.1994 16.4185 56.64 19.7669 56.64 25.08H66.64C66.64 17.9131 64.6406 11.6615 59.9737 7.10312L52.9863 14.2569ZM56.64 25.08V28.32H66.64V25.08H56.64ZM56.64 28.32C56.64 32.5873 55.3501 35.2666 53.2569 37.0889L59.8231 44.6311C64.5299 40.5334 66.64 34.8527 66.64 28.32H56.64ZM54.0978 45.223C58.4039 47.6333 61.08 52.1118 61.08 60.36H71.08C71.08 49.7282 67.3961 41.2067 58.9822 36.497L54.0978 45.223ZM61.08 60.36V64.44H71.08V60.36H61.08ZM61.08 64.44C61.08 70.9304 59.3682 75.0555 56.7011 77.6682L63.6989 84.8118C68.8718 79.7445 71.08 72.6696 71.08 64.44H61.08ZM56.6828 77.6862C54.0229 80.3187 49.8651 82 43.4 82V92C51.5749 92 58.6171 89.8413 63.7172 84.7938L56.6828 77.6862ZM43.4 82H10.52V92H43.4V82ZM15.56 81.92H43.4V71.92H15.56V81.92ZM43.4 81.92C48.4123 81.92 53.2787 80.8924 56.5955 77.5755L49.5245 70.5045C49.0013 71.0276 47.4278 71.92 43.4 71.92V81.92ZM56.5955 77.5755C59.9237 74.2474 61 69.4385 61 64.44H51C51 68.3215 50.1163 69.9126 49.5245 70.5045L56.5955 77.5755ZM61 64.44V60.36H51V64.44H61ZM61 60.36C61 55.4333 59.9947 50.6236 56.7155 47.3445L49.6445 54.4155C50.1253 54.8964 51 56.4067 51 60.36H61ZM56.7526 47.3819C53.4435 44.0024 48.4721 43 43.4 43V53C47.6079 53 49.1565 53.9176 49.6074 54.3781L56.7526 47.3819ZM43.4 43H15.56V53H43.4V43ZM10.56 48V76.92H20.56V48H10.56ZM15.56 42.92H44V32.92H15.56V42.92ZM44 42.92C47.8993 42.92 51.995 41.6578 54.2693 37.7214L45.6107 32.7186C45.6088 32.7219 45.6232 32.6988 45.6512 32.6738C45.6776 32.6502 45.6745 32.662 45.606 32.6932C45.448 32.765 44.978 32.92 44 32.92V42.92ZM54.2275 37.7925C55.9046 34.9973 56.56 31.7327 56.56 28.32H46.56C46.56 30.5073 46.1355 31.8427 45.6525 32.6475L54.2275 37.7925ZM56.56 28.32V25.08H46.56V28.32H56.56ZM56.56 25.08C56.56 21.1943 55.8087 16.9952 52.8331 14.1849L45.9669 21.4551C45.8945 21.3867 46.0508 21.4866 46.2276 22.0808C46.409 22.6904 46.56 23.6544 46.56 25.08H56.56ZM52.8854 14.235C50.0051 11.4348 45.8017 10.72 41.84 10.72V20.72C43.3445 20.72 44.3964 20.8694 45.0918 21.0626C45.7809 21.254 45.9502 21.4396 45.9146 21.405L52.8854 14.235ZM41.84 10.72H15.56V20.72H41.84V10.72ZM10.56 15.72V37.92H20.56V15.72H10.56Z" fill="#ff1144"/>
</svg>
