<svg xmlns="http://www.w3.org/2000/svg" xmlns:xlink="http://www.w3.org/1999/xlink" width="400" height="126.72094744633604" viewBox="0 0 400 126.72094744633604">
    <path d="M5.767 2.034 C 1.170 4.123,-0.050 10.563,3.482 14.096 C 3.981 14.594,47.269 39.754,99.678 70.005 C 152.087 100.256,195.373 125.393,195.869 125.864 L 196.771 126.721 201.393 126.721 L 206.014 126.721 302.193 71.204 C 358.344 38.791,398.710 15.316,399.186 14.796 C 399.996 13.910,400.000 13.887,400.000 9.572 L 400.000 5.238 398.835 4.129 C 396.375 1.789,392.903 1.494,389.550 3.340 C 388.540 3.896,345.911 28.488,294.819 57.987 L 201.925 111.622 107.995 57.387 C 56.333 27.558,13.351 2.776,12.479 2.316 C 10.528 1.287,7.676 1.167,5.767 2.034Z" fill="#ff1144" />
</svg>
