<svg width="77" height="92" viewBox="0 0 77 92" fill="none" xmlns="http://www.w3.org/2000/svg">
    <path d="M32.48 86.9951C23.32 86.9951 16.54 84.8151 12.14 80.4551C7.78 76.0551 5.6 69.2751 5.6 60.1151V32.5151C5.6 23.2751 7.78 16.4751 12.14 12.1151C16.5 7.71512 23.24 5.55511 32.36 5.63511H46.88C54.4 5.63511 60.14 7.19511 64.1 10.3151C68.06 13.3951 70.36 18.2751 71 24.9551C71.24 26.6351 70.92 27.9151 70.04 28.7951C69.16 29.6751 67.88 30.1151 66.2 30.1151C63.16 30.1151 61.4 28.4351 60.92 25.0751C60.52 21.3951 59.24 18.9151 57.08 17.6351C54.96 16.3551 51.56 15.7151 46.88 15.7151H32.36C28.12 15.6751 24.78 16.1551 22.34 17.1551C19.94 18.1551 18.22 19.8951 17.18 22.3751C16.18 24.8151 15.68 28.1951 15.68 32.5151V60.1151C15.68 64.3951 16.18 67.7551 17.18 70.1951C18.22 72.6351 19.96 74.3751 22.4 75.4151C24.84 76.4151 28.2 76.9151 32.48 76.9151H46.88C51.56 76.9151 54.96 76.2751 57.08 74.9951C59.24 73.6751 60.52 71.1951 60.92 67.5551C61.4 64.1951 63.16 62.5151 66.2 62.5151C67.88 62.5151 69.16 62.9551 70.04 63.8351C70.92 64.7151 71.24 65.9951 71 67.6751C70.36 74.3951 68.06 79.2951 64.1 82.3751C60.14 85.4551 54.4 86.9951 46.88 86.9951H32.48Z" fill="#ff1144"/>
    <path d="M12.14 80.4551L8.58836 83.9745L8.60443 83.9907L8.62065 84.0068L12.14 80.4551ZM12.14 12.1151L15.6755 15.6507L15.6836 15.6426L15.6916 15.6345L12.14 12.1151ZM32.36 5.63511L32.3161 10.6349L32.3381 10.6351H32.36V5.63511ZM64.1 10.3151L61.0056 14.2426L61.0179 14.2523L61.0303 14.2619L64.1 10.3151ZM71 24.9551L66.0228 25.432L66.0339 25.5474L66.0503 25.6622L71 24.9551ZM70.04 28.7951L73.5755 32.3307L73.5755 32.3306L70.04 28.7951ZM60.92 25.0751L55.9493 25.6154L55.9584 25.699L55.9703 25.7822L60.92 25.0751ZM57.08 17.6351L54.4957 21.9154L54.5133 21.9261L54.531 21.9366L57.08 17.6351ZM32.36 15.7151L32.3128 20.7149L32.3364 20.7151H32.36V15.7151ZM22.34 17.1551L20.4439 12.5286L20.4304 12.5341L20.4169 12.5397L22.34 17.1551ZM17.18 22.3751L12.569 20.4415L12.5612 20.4602L12.5535 20.479L17.18 22.3751ZM17.18 70.1951L12.5535 72.0912L12.5667 72.1235L12.5804 72.1556L17.18 70.1951ZM22.4 75.4151L20.4395 80.0147L20.4716 80.0284L20.5039 80.0416L22.4 75.4151ZM57.08 74.9951L59.6643 79.2754L59.6758 79.2685L59.6873 79.2615L57.08 74.9951ZM60.92 67.5551L55.9703 66.848L55.9588 66.9283L55.9499 67.009L60.92 67.5551ZM70.04 63.8351L73.5755 60.2996L73.5755 60.2996L70.04 63.8351ZM71 67.6751L66.0503 66.968L66.0337 67.0842L66.0225 67.2011L71 67.6751ZM64.1 82.3751L67.1697 86.3219L67.1697 86.3219L64.1 82.3751ZM32.48 81.9951C24.0118 81.9951 18.7564 79.9723 15.6594 76.9035L8.62065 84.0068C14.3236 89.6579 22.6282 91.9951 32.48 91.9951V81.9951ZM15.6916 76.9358C12.6228 73.8387 10.6 68.5833 10.6 60.1151H0.600001C0.600001 69.967 2.93722 78.2715 8.58836 83.9745L15.6916 76.9358ZM10.6 60.1151V32.5151H0.600001V60.1151H10.6ZM10.6 32.5151C10.6 23.9476 12.6316 18.6945 15.6755 15.6507L8.60447 8.57958C2.92836 14.2557 0.600001 22.6026 0.600001 32.5151H10.6ZM15.6916 15.6345C18.7316 12.5666 23.9082 10.5612 32.3161 10.6349L32.4039 0.635306C22.5718 0.54906 14.2684 2.86365 8.58836 8.59576L15.6916 15.6345ZM32.36 10.6351H46.88V0.635113H32.36V10.6351ZM46.88 10.6351C53.8063 10.6351 58.2683 12.0859 61.0056 14.2426L67.1944 6.38765C62.0117 2.30432 54.9937 0.635113 46.88 0.635113V10.6351ZM61.0303 14.2619C63.5735 16.2399 65.4679 19.6402 66.0228 25.432L75.9772 24.4783C75.2521 16.9101 72.5465 10.5503 67.1697 6.36835L61.0303 14.2619ZM66.0503 25.6622C66.1038 26.0371 66.0545 26.1014 66.0893 25.9624C66.1082 25.8867 66.1478 25.7694 66.2242 25.6319C66.3015 25.4928 66.3984 25.3657 66.5045 25.2596L73.5755 32.3306C75.9416 29.9646 76.3253 26.8766 75.9497 24.248L66.0503 25.6622ZM66.5045 25.2596C66.5687 25.1954 66.6363 25.1438 66.6978 25.1062C66.7579 25.0694 66.7951 25.0565 66.7946 25.0567C66.7864 25.0595 66.615 25.1151 66.2 25.1151V35.1151C68.7288 35.1151 71.4671 34.4391 73.5755 32.3307L66.5045 25.2596ZM66.2 25.1151C65.8956 25.1151 65.7886 25.0727 65.8118 25.0808C65.8526 25.0951 65.9543 25.1447 66.0524 25.2383C66.2507 25.4277 66.0127 25.3686 65.8697 24.368L55.9703 25.7822C56.3073 28.1416 57.1893 30.6025 59.1476 32.4719C61.1755 34.4076 63.7306 35.1151 66.2 35.1151V25.1151ZM65.8907 24.5348C65.4048 20.0647 63.6969 15.7442 59.629 13.3337L54.531 21.9366C54.7831 22.086 55.6352 22.7256 55.9493 25.6154L65.8907 24.5348ZM59.6644 13.3548C56.3362 11.3453 51.7888 10.7151 46.88 10.7151V20.7151C51.3312 20.7151 53.5838 21.3649 54.4957 21.9154L59.6644 13.3548ZM46.88 10.7151H32.36V20.7151H46.88V10.7151ZM32.4072 10.7153C27.858 10.6724 23.7617 11.1688 20.4439 12.5286L24.2361 21.7816C25.7983 21.1414 28.382 20.6778 32.3128 20.7149L32.4072 10.7153ZM20.4169 12.5397C16.7575 14.0645 14.0981 16.7953 12.569 20.4415L21.791 24.3087C22.3419 22.9949 23.1225 22.2457 24.2631 21.7705L20.4169 12.5397ZM12.5535 20.479C11.199 23.7838 10.68 27.9073 10.68 32.5151H20.68C20.68 28.4829 21.161 25.8464 21.8065 24.2712L12.5535 20.479ZM10.68 32.5151V60.1151H20.68V32.5151H10.68ZM10.68 60.1151C10.68 64.6902 11.2007 68.7905 12.5535 72.0912L21.8065 68.299C21.1593 66.7197 20.68 64.1001 20.68 60.1151H10.68ZM12.5804 72.1556C14.1265 75.783 16.8121 78.4686 20.4395 80.0147L24.3605 70.8155C23.1079 70.2816 22.3135 69.4873 21.7796 68.2346L12.5804 72.1556ZM20.5039 80.0416C23.8046 81.3944 27.9049 81.9151 32.48 81.9151V71.9151C28.4951 71.9151 25.8754 71.4358 24.2961 70.7886L20.5039 80.0416ZM32.48 81.9151H46.88V71.9151H32.48V81.9151ZM46.88 81.9151C51.7888 81.9151 56.3362 81.2849 59.6643 79.2754L54.4957 70.7148C53.5838 71.2653 51.3312 71.9151 46.88 71.9151V81.9151ZM59.6873 79.2615C63.6825 76.82 65.4 72.5613 65.8901 68.1013L55.9499 67.009C55.64 69.8289 54.7975 70.5303 54.4728 70.7287L59.6873 79.2615ZM65.8697 68.2622C66.0127 67.2616 66.2508 67.2025 66.0524 67.3919C65.9543 67.4855 65.8526 67.5351 65.8118 67.5494C65.7886 67.5575 65.8956 67.5151 66.2 67.5151V57.5151C63.7306 57.5151 61.1755 58.2226 59.1476 60.1583C57.1893 62.0277 56.3073 64.4887 55.9703 66.848L65.8697 68.2622ZM66.2 67.5151C66.615 67.5151 66.7864 67.5707 66.7946 67.5735C66.7951 67.5737 66.7579 67.5608 66.6978 67.524C66.6363 67.4865 66.5687 67.4349 66.5045 67.3707L73.5755 60.2996C71.4671 58.1911 68.7288 57.5151 66.2 57.5151V67.5151ZM66.5045 67.3706C66.3984 67.2646 66.3015 67.1374 66.2242 66.9983C66.1478 66.8609 66.1082 66.7435 66.0893 66.6678C66.0545 66.5288 66.1038 66.5931 66.0503 66.968L75.9497 68.3822C76.3253 65.7536 75.9416 62.6656 73.5755 60.2996L66.5045 67.3706ZM66.0225 67.2011C65.4662 73.0426 63.5664 76.4559 61.0303 78.4284L67.1697 86.3219C72.5536 82.1344 75.2538 75.7477 75.9775 68.1492L66.0225 67.2011ZM61.0303 78.4284C58.2903 80.5595 53.8179 81.9951 46.88 81.9951V91.9951C54.9821 91.9951 61.9897 90.3508 67.1697 86.3219L61.0303 78.4284ZM46.88 81.9951H32.48V91.9951H46.88V81.9951Z" fill="#ff1144"/>
</svg>
