<svg width="97" height="297" viewBox="0 0 97 297" fill="none" xmlns="http://www.w3.org/2000/svg">
    <path d="M11.0252 296.1C32.1419 296.1 47.0752 291.375 55.8252 281.925C64.5752 272.592 68.9502 256.842 68.9502 234.675V175.35L88.3752 168C94.0919 165.433 96.9502 161.117 96.9502 155.05V144.725C96.9502 138.775 94.0919 134.517 88.3752 131.95L68.9502 124.25V64.925C68.9502 49.875 67.2002 37.5667 63.7002 28C60.0835 18.4333 54.1335 11.375 45.8502 6.82501C37.5669 2.275 26.3669 0 12.2502 0C8.51686 0 5.54186 1.05 3.3252 3.15C1.10853 5.13334 0.000198364 7.70001 0.000198364 10.85C0.000198364 14.1167 1.10853 16.8 3.3252 18.9C5.4252 20.8833 7.99186 21.9333 11.0252 22.05C17.4419 22.1667 22.9252 22.6917 27.4752 23.625C32.0252 24.4417 35.7585 26.25 38.6752 29.05C41.4752 31.7333 43.5752 35.9333 44.9752 41.65C46.2585 47.25 46.9002 55.0083 46.9002 64.925V129.85C46.9002 136.5 49.7002 140.817 55.3002 142.8L83.3002 152.6V147.35L55.4752 156.8C49.7585 158.783 46.9002 163.042 46.9002 169.575V234.675C46.9002 245.992 45.9669 254.392 44.1002 259.875C42.1169 265.475 38.5585 269.15 33.4252 270.9C28.1752 272.767 20.7085 273.817 11.0252 274.05C7.75853 274.05 5.13352 275.1 3.15019 277.2C1.05019 279.417 0.000198364 282.042 0.000198364 285.075C0.000198364 287.992 1.10853 290.558 3.3252 292.775C5.4252 294.992 7.99186 296.1 11.0252 296.1Z" fill="#ff1144"/>
</svg>
