<svg width="150" height="297" viewBox="0 0 97 297" fill="none" xmlns="http://www.w3.org/2000/svg">
    <path d="M85.925 296.1C64.8083 296.1 49.875 291.375 41.125 281.925C32.375 272.592 28 256.842 28 234.675V175.35L8.575 168C2.85833 165.433 0 161.117 0 155.05V144.725C0 138.775 2.85833 134.517 8.575 131.95L28 124.25V64.925C28 49.875 29.75 37.5667 33.25 28C36.8667 18.4333 42.8167 11.375 51.1 6.82501C59.3833 2.275 70.5833 0 84.7 0C88.4333 0 91.4083 1.05 93.625 3.15C95.8417 5.13334 96.95 7.70001 96.95 10.85C96.95 14.1167 95.8417 16.8 93.625 18.9C91.525 20.8833 88.9583 21.9333 85.925 22.05C79.5083 22.1667 74.025 22.6917 69.475 23.625C64.925 24.4417 61.1917 26.25 58.275 29.05C55.475 31.7333 53.375 35.9333 51.975 41.65C50.6917 47.25 50.05 55.0083 50.05 64.925V129.85C50.05 136.5 47.25 140.817 41.65 142.8L13.65 152.6V147.35L41.475 156.8C47.1917 158.783 50.05 163.042 50.05 169.575V234.675C50.05 245.992 50.9833 254.392 52.85 259.875C54.8333 265.475 58.3917 269.15 63.525 270.9C68.775 272.767 76.2417 273.817 85.925 274.05C89.1917 274.05 91.8167 275.1 93.8 277.2C95.9 279.417 96.95 282.042 96.95 285.075C96.95 287.992 95.8417 290.558 93.625 292.775C91.525 294.992 88.9583 296.1 85.925 296.1Z" fill="#ff1144"/>
</svg>
