<svg width="67" height="92" viewBox="0 0 67 92" fill="none" xmlns="http://www.w3.org/2000/svg">
    <path d="M10.52 86.9951C7.16 86.9951 5.48 85.3151 5.48 81.9551V10.6751C5.48 7.31511 7.16 5.63511 10.52 5.63511H38.6C45.92 5.63511 51.52 7.59511 55.4 11.5151C59.32 15.3951 61.28 20.9951 61.28 28.3151V31.9151C61.28 39.2351 59.32 44.8551 55.4 48.7751C51.52 52.6551 45.92 54.5951 38.6 54.5951H15.56V81.9551C15.56 85.3151 13.88 86.9951 10.52 86.9951ZM15.56 44.5151H38.6C43.16 44.5151 46.4 43.5551 48.32 41.6351C50.24 39.7151 51.2 36.4751 51.2 31.9151V28.3151C51.2 23.7951 50.24 20.5751 48.32 18.6551C46.4 16.6951 43.16 15.7151 38.6 15.7151H15.56V44.5151Z" fill="#ff1144"/>
    <path d="M55.4 11.5151L51.8464 15.0325L51.8644 15.0507L51.8826 15.0687L55.4 11.5151ZM55.4 48.7751L58.9355 52.3107L58.9355 52.3106L55.4 48.7751ZM15.56 54.5951V49.5951H10.56V54.5951H15.56ZM15.56 44.5151H10.56V49.5151H15.56V44.5151ZM48.32 18.6551L44.7482 22.154L44.7662 22.1724L44.7845 22.1906L48.32 18.6551ZM15.56 15.7151V10.7151H10.56V15.7151H15.56ZM10.52 81.9951C10.3064 81.9951 10.1511 81.9816 10.0459 81.9666C9.94108 81.9517 9.89555 81.9365 9.89614 81.9367C9.89829 81.9374 9.94579 81.9536 10.0212 81.9989C10.0585 82.0213 10.1002 82.0493 10.1444 82.0837C10.1886 82.1181 10.2328 82.1568 10.2755 82.1996C10.3183 82.2423 10.357 82.2865 10.3914 82.3307C10.4258 82.3749 10.4539 82.4166 10.4762 82.4539C10.5215 82.5293 10.5377 82.5768 10.5384 82.579C10.5386 82.5796 10.5235 82.534 10.5085 82.4293C10.4935 82.3241 10.48 82.1687 10.48 81.9551H0.48C0.48 84.4058 1.09607 87.1623 3.20447 89.2707C5.31287 91.379 8.06928 91.9951 10.52 91.9951V81.9951ZM10.48 81.9551V10.6751H0.48V81.9551H10.48ZM10.48 10.6751C10.48 10.4615 10.4935 10.3062 10.5085 10.201C10.5235 10.0962 10.5386 10.0507 10.5384 10.0513C10.5377 10.0534 10.5215 10.1009 10.4762 10.1763C10.4539 10.2136 10.4258 10.2553 10.3914 10.2995C10.357 10.3438 10.3183 10.3879 10.2755 10.4306C10.2328 10.4734 10.1886 10.5121 10.1444 10.5466C10.1002 10.5809 10.0585 10.609 10.0212 10.6313C9.94579 10.6766 9.89829 10.6928 9.89614 10.6935C9.89555 10.6937 9.94108 10.6786 10.0459 10.6636C10.1511 10.6486 10.3064 10.6351 10.52 10.6351V0.635113C8.06928 0.635113 5.31287 1.25118 3.20447 3.35958C1.09607 5.46798 0.48 8.22439 0.48 10.6751H10.48ZM10.52 10.6351H38.6V0.635113H10.52V10.6351ZM38.6 10.6351C45.0377 10.6351 49.1822 12.3408 51.8464 15.0325L58.9536 7.99776C53.8579 2.84946 46.8023 0.635113 38.6 0.635113V10.6351ZM51.8826 15.0687C54.5743 17.733 56.28 21.8774 56.28 28.3151H66.28C66.28 20.1128 64.0657 13.0573 58.9174 7.9615L51.8826 15.0687ZM56.28 28.3151V31.9151H66.28V28.3151H56.28ZM56.28 31.9151C56.28 38.3495 54.5755 42.5285 51.8645 45.2396L58.9355 52.3106C64.0645 47.1817 66.28 40.1207 66.28 31.9151H56.28ZM51.8645 45.2396C49.2025 47.9016 45.0514 49.5951 38.6 49.5951V59.5951C46.7886 59.5951 53.8375 57.4087 58.9355 52.3107L51.8645 45.2396ZM38.6 49.5951H15.56V59.5951H38.6V49.5951ZM10.56 54.5951V81.9551H20.56V54.5951H10.56ZM10.56 81.9551C10.56 82.1687 10.5465 82.3241 10.5315 82.4293C10.5165 82.534 10.5014 82.5796 10.5016 82.579C10.5023 82.5768 10.5185 82.5293 10.5638 82.4539C10.5861 82.4166 10.6142 82.3749 10.6486 82.3307C10.683 82.2865 10.7217 82.2423 10.7645 82.1996C10.8072 82.1568 10.8514 82.1181 10.8956 82.0837C10.9398 82.0493 10.9815 82.0213 11.0188 81.9989C11.0942 81.9536 11.1417 81.9374 11.1439 81.9367C11.1444 81.9365 11.0989 81.9517 10.9941 81.9666C10.8889 81.9816 10.7336 81.9951 10.52 81.9951V91.9951C12.9707 91.9951 15.7271 91.379 17.8355 89.2707C19.9439 87.1623 20.56 84.4058 20.56 81.9551H10.56ZM15.56 49.5151H38.6V39.5151H15.56V49.5151ZM38.6 49.5151C43.6371 49.5151 48.5323 48.4939 51.8555 45.1706L44.7845 38.0996C44.2677 38.6163 42.6829 39.5151 38.6 39.5151V49.5151ZM51.8555 45.1706C55.1788 41.8474 56.2 36.9522 56.2 31.9151H46.2C46.2 35.9981 45.3012 37.5828 44.7845 38.0996L51.8555 45.1706ZM56.2 31.9151V28.3151H46.2V31.9151H56.2ZM56.2 28.3151C56.2 23.3029 55.1724 18.4364 51.8555 15.1196L44.7845 22.1906C45.3076 22.7138 46.2 24.2874 46.2 28.3151H56.2ZM51.8918 15.1562C48.5705 11.7658 43.6591 10.7151 38.6 10.7151V20.7151C42.6609 20.7151 44.2295 21.6245 44.7482 22.154L51.8918 15.1562ZM38.6 10.7151H15.56V20.7151H38.6V10.7151ZM10.56 15.7151V44.5151H20.56V15.7151H10.56Z" fill="#ff1144"/>
</svg>
